<svg version="1.1" id="Layer_1" xmlns="http://www.w3.org/2000/svg" xmlns:xlink="http://www.w3.org/1999/xlink" x="0px" y="0px"
	 width="100%" viewBox="0 0 1024 1024" enable-background="new 0 0 1024 1024" xml:space="preserve">
<path fill="#000000" opacity="1.000000" stroke="none" 
	d="
M579.656189,613.300354 
	C579.657288,529.738159 579.640869,446.585938 579.721436,363.433777 
	C579.724182,360.555908 578.099182,356.667358 582.339172,355.212250 
	C586.700439,353.715576 590.345154,355.637970 592.883667,359.015747 
	C597.480835,365.132935 601.762817,371.490540 606.077454,377.815277 
	C609.048096,382.169891 610.335571,382.421661 614.286560,378.905731 
	C621.875793,372.152130 629.493652,365.429108 636.991150,358.574738 
	C639.372070,356.398010 641.928040,355.569000 645.126221,355.628082 
	C653.621887,355.784943 662.122559,355.645020 670.620789,355.698944 
	C677.489014,355.742493 681.278931,359.300903 681.285339,366.037628 
	C681.333313,416.362183 681.305420,466.686798 681.327332,517.011414 
	C681.328308,519.227478 680.851196,521.281555 680.035706,523.318481 
	C663.468994,564.695740 640.313843,601.955750 610.715637,635.300293 
	C587.329773,661.646118 560.995911,684.396606 531.003967,702.933777 
	C527.318359,705.211670 525.755188,704.400452 523.631897,701.039368 
	C487.782318,644.291748 451.819916,587.615417 415.885040,530.921692 
	C412.140350,525.013733 408.392487,519.107727 404.682495,513.177917 
	C402.380920,509.499298 399.823364,509.261688 396.477417,512.018982 
	C390.986359,516.544006 388.246735,521.966431 388.260162,529.313660 
	C388.404144,608.132812 388.330566,686.952454 388.466125,765.771667 
	C388.472412,769.427917 387.387848,770.334717 383.997559,770.323730 
	C355.336243,770.230896 326.673676,770.146179 298.013702,770.359131 
	C292.650665,770.399048 292.644440,767.574036 292.647827,763.744629 
	C292.693329,712.253540 292.674561,660.762451 292.672943,609.271362 
	C292.670410,527.452209 292.667755,445.633087 292.668549,363.813934 
	C292.668610,355.683350 292.679443,355.679535 300.871033,355.679199 
	C333.865326,355.677856 366.860077,355.763458 399.853333,355.578613 
	C404.267975,355.553864 406.744019,357.116272 409.105713,360.700623 
	C444.757294,414.809601 480.577209,468.807648 516.283875,522.880432 
	C535.743530,552.349426 555.054382,581.916687 574.471497,611.413879 
	C575.724243,613.317017 576.604492,615.562317 578.645264,616.875366 
	C580.038818,616.077698 579.454895,614.775696 579.656189,613.300354 
M593.478271,649.980042 
	C596.723755,646.038330 602.571716,643.549561 601.317749,636.804260 
	C593.226562,637.075073 591.208130,635.239014 590.783508,627.556519 
	C590.609924,624.416931 589.004456,622.434387 585.937683,622.304199 
	C583.131165,622.184998 581.510437,623.808411 580.897705,626.763733 
	C579.665894,632.705261 579.148804,638.498230 581.231934,644.414856 
	C582.736023,648.686890 582.471436,652.793579 578.923462,656.387329 
	C577.491028,657.838196 575.813049,659.711182 576.237000,662.723877 
	C582.785950,659.378296 588.367493,655.605225 593.478271,649.980042 
z"/>
<path fill="#000000" opacity="1.000000" stroke="none" 
	d="
M708.498047,300.328003 
	C704.883118,300.326508 703.999634,301.626373 705.100952,304.759369 
	C710.564941,320.303253 715.956665,335.873474 721.217346,351.487183 
	C722.133484,354.206299 723.990479,355.458527 726.323792,356.518707 
	C731.320374,358.789032 736.491455,360.681885 741.097290,363.783295 
	C744.344910,365.970184 745.957886,368.811432 745.189392,372.684204 
	C744.474670,376.285980 741.626221,376.997955 738.464355,377.495544 
	C734.268799,378.155853 732.984131,380.298615 733.809387,384.912903 
	C736.174805,398.139069 737.358948,411.534241 738.461243,424.939606 
	C739.186584,433.761536 739.350586,442.558868 739.329529,451.380157 
	C739.218689,497.675049 729.504395,542.093811 713.242188,585.252563 
	C704.653015,608.047668 694.442871,630.077454 682.605042,651.358093 
	C681.322205,653.664124 681.316589,656.120239 681.317383,658.630981 
	C681.327942,693.629822 681.327332,728.628723 681.312866,763.627563 
	C681.310120,770.234192 681.276794,770.252197 674.574036,770.252319 
	C582.577698,770.253967 490.581329,770.252686 398.584991,770.232178 
	C396.649139,770.231750 394.628784,770.603882 392.413910,769.428284 
	C394.617462,766.710449 397.751434,767.316895 400.193573,766.952271 
	C425.017944,763.246216 448.943573,756.254211 472.152130,746.944214 
	C519.533386,727.937317 561.875916,700.745667 598.954407,665.761658 
	C643.637085,623.603027 675.976501,573.244141 695.246765,514.815125 
	C703.497131,489.799652 708.176208,464.016235 709.911255,437.645538 
	C710.833313,423.630737 710.749756,409.718689 709.664001,395.763153 
	C709.560974,394.438141 709.668457,393.066833 708.388367,392.137512 
	C706.497681,391.883179 705.371094,393.379608 703.999084,394.192322 
	C701.445374,395.705078 698.986328,396.902161 696.136475,394.970428 
	C693.329285,393.067688 692.554260,390.220642 692.766235,387.110291 
	C693.085693,382.422729 694.603210,377.968719 696.208252,373.613129 
	C697.496338,370.117554 697.358643,367.002472 696.028320,363.534882 
	C689.768066,347.216644 683.735596,330.811127 677.544495,314.466034 
	C676.804871,312.513397 676.500183,310.225128 673.908752,308.509369 
	C668.287842,314.723755 662.683289,321.023834 656.965576,327.219452 
	C645.443176,339.704926 633.941895,352.211823 622.263977,364.550995 
	C616.851440,370.270081 610.140503,371.555389 606.478149,367.394745 
	C600.529541,360.636627 597.068542,353.231628 602.398804,346.468109 
	C617.350891,327.495361 631.333130,307.715240 647.001648,289.366882 
	C655.837341,279.019989 658.532349,270.343567 651.489197,257.812500 
	C645.601135,247.336578 642.295532,235.382065 640.164124,223.327072 
	C639.546082,219.831863 639.529968,216.349976 639.693665,212.875153 
	C640.071777,204.847061 647.078369,200.504395 654.555969,203.511749 
	C658.223694,204.986847 660.945618,207.580902 663.366333,210.655640 
	C673.694824,223.774490 679.343140,239.450882 687.004089,254.015900 
	C689.371887,258.517578 692.288757,261.228607 697.131470,262.657593 
	C723.931335,270.565613 750.674561,278.665588 777.431458,286.718903 
	C781.582092,287.968201 785.778564,289.033417 787.510437,293.903198 
	C789.689331,300.030029 787.065247,304.356506 780.617371,304.282257 
	C764.319031,304.094696 748.079407,302.783234 731.837158,301.504913 
	C724.213135,300.904907 716.557617,300.705780 708.498047,300.328003 
z"/>
</svg>